PathFileType	4	(X/Y/Z)	Run_200 02
DataRate	CameraRate	NumFrames	NumMarkers	Units	OrigDataRate	OrigDataStartFrame	OrigNumFrames
100	100	4	42	mm	100	350	128
Frame#	Time	RASI			LPSI			RPSI			RTH2			RTH3			LTH1			LTH2			LTH3			RTB1			RTB2			LTB1			LTB2			LTB3			RCAL			RMT5			LCAL			LTOE			LMT5			LACR			RACR			CLAV			C7			RUA1			RUA2			RUA3			RLEL			LUA1			LUA2			LUA3			LLEL			RFAsuperior			RFAradius			RFAulna			LFAsuperior			LFAradius			LFAulna			RTOE			RTH1			LMEL			RTB3			RMEL			LASI		
		X1	Y1	Z1	X2	Y2	Z2	X3	Y3	Z3	X4	Y4	Z4	X5	Y5	Z5	X6	Y6	Z6	X7	Y7	Z7	X8	Y8	Z8	X9	Y9	Z9	X10	Y10	Z10	X11	Y11	Z11	X12	Y12	Z12	X13	Y13	Z13	X14	Y14	Z14	X15	Y15	Z15	X16	Y16	Z16	X17	Y17	Z17	X18	Y18	Z18	X19	Y19	Z19	X20	Y20	Z20	X21	Y21	Z21	X22	Y22	Z22	X23	Y23	Z23	X24	Y24	Z24	X25	Y25	Z25	X26	Y26	Z26	X27	Y27	Z27	X28	Y28	Z28	X29	Y29	Z29	X30	Y30	Z30	X31	Y31	Z31	X32	Y32	Z32	X33	Y33	Z33	X34	Y34	Z34	X35	Y35	Z35	X36	Y36	Z36	X37	Y37	Z37	X38	Y38	Z38	X39	Y39	Z39	X40	Y40	Z40	X41	Y41	Z41	X42	Y42	Z42	

350	  3.500000	1002.070309	1044.432101	-220.033348	844.480644	1092.400121	-413.271587	840.666349	1088.972938	-300.216533	886.288018	769.910956	-205.027146	938.562960	618.832929	-220.193121	979.574358	911.665350	-527.006710	974.083347	749.742183	-491.755911	1082.871140	652.569599	-486.495591	943.594876	363.019893	-302.650501	858.298856	345.042678	-228.565330	1114.117656	443.895541	-426.537640	979.309885	414.879456	-479.964437	956.203685	293.626403	-427.433177	670.763785	112.774270	-305.173097	863.210730	 51.982026	-244.264490	771.813727	264.711669	-403.375582	955.164623	112.717931	-409.785812	889.773404	111.273108	-500.504497	943.467264	1543.455141	-479.415954	1022.464937	1502.147228	-187.136840	1051.700830	1472.184900	-321.593365	926.548283	1544.392038	-336.901574	942.551220	1398.217742	-102.404446	993.890812	1342.216091	-85.490693	948.829439	1260.631306	-29.551323	930.289916	1201.330528	  5.186535	917.985587	1427.216041	-566.128681	1007.110910	1386.625139	-573.199386	1018.818117	1295.589701	-617.308036	1070.727365	1244.952282	-626.634637	1025.703816	1148.554283	-12.069926	1154.490219	1100.109801	-132.848749	1147.852202	1061.213474	-75.070328	1117.905150	1295.482210	-587.667539	1088.681623	1442.807814	-479.784248	1154.588683	1422.889847	-459.965293	908.496031	 71.068156	-343.096244	930.123941	918.744075	-177.694004	1049.367978	1204.928332	-542.873469	837.910212	202.419523	-312.988079	915.336438	1169.417188	-77.458196	999.100382	1040.595765	-476.643941	
351	  3.510000	1002.909362	1050.660352	-219.552985	843.760265	1099.606593	-411.923931	841.261888	1095.644612	-298.886452	879.278753	776.389533	-205.586616	925.643437	623.783871	-221.746222	978.129640	919.942156	-528.013806	974.322870	757.709046	-491.866617	1083.626117	661.705772	-487.081597	925.299402	367.449780	-303.066104	840.195451	349.724665	-229.581359	1122.185670	451.552560	-428.560222	988.551265	414.135359	-479.580293	974.094897	291.421665	-426.708459	653.160449	118.892064	-305.578206	843.352130	 52.534706	-245.155924	792.311626	249.666775	-400.388731	986.153896	111.865789	-409.556100	919.561798	104.855783	-498.699302	941.873716	1549.395903	-479.717746	1024.090775	1509.370159	-188.264687	1052.185264	1479.067162	-322.897744	926.738444	1550.649194	-336.902407	945.910755	1405.210414	-102.247520	997.969975	1349.329585	-86.298468	954.942019	1267.102121	-30.032233	937.496476	1207.266099	  4.416223	914.449342	1432.850148	-565.461404	1003.009109	1391.873931	-574.166937	1013.413768	1300.606627	-618.176711	1064.855572	1249.536573	-628.409604	1033.852059	1158.198348	-15.720148	1161.876307	1117.605269	-139.896125	1157.666093	1076.889698	-83.102519	1113.040783	1300.069356	-590.445540	1086.464984	1448.119613	-483.032372	1152.523583	1427.941587	-463.989360	889.021924	 70.615176	-344.807872	929.088244	923.539002	-178.531165	1043.500261	1209.789294	-544.531203	819.625056	206.834636	-313.545382	921.143026	1176.062061	-78.292686	998.875328	1047.249885	-476.831084	
352	  3.520000	1003.943044	1057.039358	-218.984594	843.193811	1107.028233	-410.602419	842.052294	1102.471716	-297.458922	872.822774	783.208166	-205.874359	913.557414	629.436668	-222.670274	976.117459	928.252152	-529.057986	973.624873	765.921172	-491.162110	1082.837079	670.410240	-487.278648	908.012799	372.577382	-303.152267	823.042487	355.208672	-230.257812	1128.937993	458.930983	-429.923741	997.240249	412.774377	-479.075428	991.995096	289.239529	-426.006159	636.549081	126.605319	-305.942113	823.752378	 53.246645	-245.922210	813.871676	234.271853	-396.839262	1017.368952	111.948507	-409.253110	949.808527	 99.167340	-496.697999	940.697923	1555.494940	-480.326123	1025.875360	1516.531715	-189.418370	1052.736058	1485.912776	-324.185986	927.114110	1556.980822	-336.940804	949.166871	1412.389984	-102.133774	1001.745178	1356.436244	-87.208781	960.270643	1273.728323	-30.631988	943.741492	1213.309937	  3.346367	911.411646	1438.618410	-564.877023	999.232678	1397.147911	-575.222288	1008.176941	1305.675700	-619.216725	1059.065995	1254.138559	-630.388030	1041.003021	1168.078596	-19.334628	1167.936005	1134.984866	-146.670046	1166.189182	1092.800978	-91.145147	1108.324602	1304.602217	-593.447428	1084.464030	1453.316127	-486.448155	1150.757513	1432.967369	-468.311507	869.812909	 70.335633	-346.341215	927.972898	928.521323	-179.276935	1037.715149	1214.667419	-546.391695	802.381385	212.100035	-313.966965	926.319402	1182.801719	-79.412235	998.872615	1054.110906	-476.928304	
353	  3.530000	1005.102866	1063.435966	-218.465943	842.787308	1114.462747	-409.353916	842.969168	1109.314923	-296.084190	867.117833	790.216761	-205.706064	902.495173	635.700908	-222.947401	973.558603	936.312557	-530.173605	971.779927	773.960883	-489.711651	1080.620793	678.423074	-487.047881	891.974476	378.272434	-302.858646	806.880232	361.447422	-230.555991	1134.435856	465.749768	-430.595810	1005.521903	410.776580	-478.439890	1009.734632	287.112076	-425.304358	621.032657	135.720074	-306.362438	804.440412	 54.199473	-246.552158	836.274659	218.965340	-393.153332	1048.455273	112.963550	-408.617387	980.423493	 94.368244	-494.569777	939.967391	1561.588314	-480.958721	1027.782552	1523.457011	-190.564317	1053.279593	1492.468903	-325.512297	927.679798	1563.260246	-337.031599	952.262583	1419.517933	-102.062152	1005.232810	1363.386003	-88.217880	964.941797	1280.285587	-31.335631	949.170185	1219.243540	  2.080526	908.764952	1444.362648	-564.390441	995.745890	1402.326144	-576.378445	1003.101188	1310.687539	-620.386415	1053.343325	1258.664085	-632.463982	1047.227482	1177.920664	-22.980527	1172.761033	1151.941218	-153.273310	1173.545510	1108.744632	-98.856034	1103.708238	1308.976454	-596.700725	1082.529251	1458.246499	-489.892143	1149.158885	1437.795821	-472.782450	850.849344	 70.204407	-347.135317	926.951631	933.634553	-179.955222	1031.996230	1219.470482	-548.350706	786.436225	218.152203	-314.257117	930.933738	1189.414976	-80.801669	999.084106	1061.143047	-477.105435	
